<svg width="19" height="22" viewBox="0 0 19 22" fill="none" xmlns="http://www.w3.org/2000/svg">
<g clip-path="url(#clip0_1167_178)">
<path d="M17.9563 16.8654C17.6331 17.5991 17.2506 18.2744 16.8074 18.8953C16.2032 19.7418 15.7086 20.3277 15.3274 20.6531C14.7364 21.1871 14.1033 21.4606 13.4253 21.4762C12.9385 21.4762 12.3515 21.34 11.6683 21.0639C10.9827 20.7891 10.3528 20.653 9.77671 20.653C9.17257 20.653 8.52463 20.7891 7.83161 21.0639C7.13751 21.3401 6.57836 21.4839 6.15084 21.4982C5.50068 21.5254 4.85263 21.2441 4.20576 20.653C3.79288 20.2992 3.27647 19.6925 2.65781 18.8331C1.99406 17.9153 1.44838 16.8511 1.02086 15.6378C0.563014 14.3273 0.333496 13.0583 0.333496 11.8297C0.333496 10.4223 0.642952 9.20852 1.26278 8.19135C1.74991 7.37433 2.39797 6.72982 3.20906 6.2567C4.02014 5.78357 4.89655 5.54245 5.84034 5.52704C6.35676 5.52704 7.03396 5.68401 7.87553 5.99252C8.71473 6.30207 9.25355 6.45904 9.4898 6.45904C9.66642 6.45904 10.265 6.27549 11.2798 5.90956C12.2394 5.5702 13.0493 5.42967 13.7128 5.48503C15.5107 5.62762 16.8614 6.3241 17.7597 7.57888C16.1518 8.5363 15.3564 9.87726 15.3722 11.5975C15.3867 12.9375 15.8814 14.0525 16.8535 14.9379C17.2941 15.3488 17.7861 15.6664 18.3335 15.8919C18.2148 16.2302 18.0895 16.5543 17.9563 16.8654ZM13.8329 0.920125C13.8329 1.97036 13.4424 2.95097 12.6642 3.85861C11.725 4.93762 10.589 5.56111 9.35711 5.46273C9.34061 5.33069 9.33233 5.19779 9.3323 5.06477C9.3323 4.05655 9.77894 2.97753 10.5721 2.09531C10.9681 1.64862 11.4717 1.27721 12.0825 0.980921C12.6919 0.689057 13.2683 0.527647 13.8104 0.5C13.8263 0.640395 13.8329 0.780826 13.8329 0.920125Z" fill="white"/>
</g>
<defs>
<clipPath id="clip0_1167_178">
<rect width="19" height="22" fill="white"/>
</clipPath>
</defs>
</svg>
