<svg width="60" height="60" viewBox="0 0 60 60" fill="none" xmlns="http://www.w3.org/2000/svg">
<path d="M26.2683 8.64165C27.6809 5.37058 32.3191 5.37058 33.7317 8.64165C34.7028 10.8905 37.4277 11.7759 39.5351 10.5273C42.6006 8.71122 46.353 11.4375 45.5731 14.9142C45.0369 17.3043 46.721 19.6222 49.1598 19.8509C52.7073 20.1835 54.1406 24.5947 51.4661 26.9489C49.6274 28.5674 49.6274 31.4326 51.4661 33.0511C54.1406 35.4053 52.7073 39.8165 49.1598 40.1491C46.721 40.3778 45.0369 42.6957 45.5731 45.0858C46.353 48.5625 42.6006 51.2888 39.5351 49.4727C37.4277 48.2241 34.7028 49.1095 33.7317 51.3583C32.3191 54.6294 27.6809 54.6294 26.2683 51.3583C25.2972 49.1095 22.5723 48.2241 20.4649 49.4727C17.3994 51.2888 13.647 48.5625 14.4269 45.0858C14.9631 42.6957 13.279 40.3778 10.8402 40.1491C7.29268 39.8165 5.85937 35.4053 8.53386 33.0511C10.3726 31.4326 10.3726 28.5674 8.53386 26.9489C5.85937 24.5947 7.29268 20.1835 10.8402 19.8509C13.279 19.6222 14.9631 17.3043 14.4269 14.9142C13.647 11.4375 17.3994 8.71122 20.4649 10.5273C22.5723 11.7759 25.2972 10.8905 26.2683 8.64165Z" fill="#F26522"/>
<path d="M24.4738 37.28C20.9138 37.28 18.8738 34.32 18.8738 30C18.8738 25.68 20.9138 22.72 24.4738 22.72C28.0538 22.72 30.0738 25.68 30.0738 30C30.0738 34.32 28.0538 37.28 24.4738 37.28ZM24.4738 34.58C26.3538 34.58 27.3338 32.96 27.3338 30C27.3338 27.04 26.3538 25.4 24.4738 25.4C22.5938 25.4 21.6338 27.04 21.6338 30C21.6338 32.96 22.5938 34.58 24.4738 34.58ZM36.4715 27.54C39.3715 27.62 41.3715 29.6 41.3715 32.4C41.3715 35.26 39.2915 37.28 36.2915 37.28C33.2915 37.28 31.2315 35.26 31.2315 32.4C31.2315 31.32 31.5315 30.36 32.0515 29.58L36.4115 23H39.5715L36.4715 27.54ZM36.2915 34.68C37.5915 34.68 38.6315 33.82 38.6315 32.4C38.6315 31 37.5915 30.14 36.2915 30.14C34.9915 30.14 33.9715 30.98 33.9715 32.4C33.9715 33.82 34.9915 34.68 36.2915 34.68Z" fill="white"/>
</svg>
