<svg width="60" height="60" viewBox="0 0 60 60" fill="none" xmlns="http://www.w3.org/2000/svg">
<path d="M26.2683 8.64165C27.6809 5.37058 32.3191 5.37058 33.7317 8.64165C34.7028 10.8905 37.4277 11.7759 39.5351 10.5273C42.6006 8.71122 46.353 11.4375 45.5731 14.9142C45.0369 17.3043 46.721 19.6222 49.1598 19.8509C52.7073 20.1835 54.1406 24.5947 51.4661 26.9489C49.6274 28.5674 49.6274 31.4326 51.4661 33.0511C54.1406 35.4053 52.7073 39.8165 49.1598 40.1491C46.721 40.3778 45.0369 42.6957 45.5731 45.0858C46.353 48.5625 42.6006 51.2888 39.5351 49.4727C37.4277 48.2241 34.7028 49.1095 33.7317 51.3583C32.3191 54.6294 27.6809 54.6294 26.2683 51.3583C25.2972 49.1095 22.5723 48.2241 20.4649 49.4727C17.3994 51.2888 13.647 48.5625 14.4269 45.0858C14.9631 42.6957 13.279 40.3778 10.8402 40.1491C7.29268 39.8165 5.85937 35.4053 8.53386 33.0511C10.3726 31.4326 10.3726 28.5674 8.53386 26.9489C5.85937 24.5947 7.29268 20.1835 10.8402 19.8509C13.279 19.6222 14.9631 17.3043 14.4269 14.9142C13.647 11.4375 17.3994 8.71122 20.4649 10.5273C22.5723 11.7759 25.2972 10.8905 26.2683 8.64165Z" fill="#F26522"/>
<path d="M24.6008 37.28C21.0408 37.28 19.0008 34.32 19.0008 30C19.0008 25.68 21.0408 22.72 24.6008 22.72C28.1808 22.72 30.2008 25.68 30.2008 30C30.2008 34.32 28.1808 37.28 24.6008 37.28ZM24.6008 34.58C26.4808 34.58 27.4608 32.96 27.4608 30C27.4608 27.04 26.4808 25.4 24.6008 25.4C22.7208 25.4 21.7608 27.04 21.7608 30C21.7608 32.96 22.7208 34.58 24.6008 34.58ZM36.3422 28.1C38.9022 28.1 41.1222 29.68 41.1222 32.68C41.1222 35.68 38.7622 37.28 36.1222 37.28C33.9422 37.28 32.0422 36.32 31.2422 34.28L33.6022 32.9C33.9422 33.98 34.7222 34.58 36.1222 34.58C37.5622 34.58 38.3622 33.82 38.3622 32.68C38.3622 31.56 37.5622 30.78 36.2022 30.78H31.9622L32.5222 23H40.4622V25.58H35.0822L34.9022 28.1H36.3422Z" fill="white"/>
</svg>
